<?xml version="1.0" encoding="utf-8"?>
<!-- Generator: Adobe Illustrator 16.0.0, SVG Export Plug-In . SVG Version: 6.00 Build 0)  -->
<!DOCTYPE svg PUBLIC "-//W3C//DTD SVG 1.1//EN" "http://www.w3.org/Graphics/SVG/1.1/DTD/svg11.dtd">
<svg version="1.1" id="Layer_1" xmlns="http://www.w3.org/2000/svg" xmlns:xlink="http://www.w3.org/1999/xlink" x="0px" y="0px"
	 width="800px" height="800px" viewBox="0 0 800 800" enable-background="new 0 0 800 800" xml:space="preserve">
<polyline fill="none" stroke="#000000" stroke-width="0.25" stroke-miterlimit="10" points="271.006,370.738 278.513,363.447 
	270.475,373.571 281.318,363.447 273.073,373.571 271.355,375.702 285.03,362.815 275.617,374.809 287.195,362.584 279.202,374.01 
	293.469,359.176 279.33,378.794 296.508,359.018 294.896,362.242 302.085,355.989 283.905,376.861 306.885,354.659 288.68,376.655 
	308.459,356.557 310.544,354.868 293.704,375.938 313.897,355.913 296.535,375.817 315.919,356.946 309.146,365.489 
	317.048,358.668 311.208,365.146 320,359.64 295.237,378.101 279.157,387.052 279.088,389.662 320.876,360.276 279.494,391.446 
	321.686,361.882 279.672,392.574 323.435,362.223 279.401,394.391 325.2,363.635 278.521,396.298 327.005,365.118 273.588,401.972 
	328.477,366.347 273.311,404.288 286.643,396.587 "/>
<polyline fill="none" stroke="#000000" stroke-width="0.25" stroke-miterlimit="10" points="296.794,389.91 328.477,367.894 
	303.478,388.742 331.387,368.801 308.631,386.961 331.731,370.643 333.595,370.651 327.716,376.217 334.037,371.845 
	334.037,374.119 336.681,373.179 335.298,372.058 "/>
<polyline fill="none" stroke="#000000" stroke-width="0.25" stroke-miterlimit="10" points="276.991,388.98 278.331,398.7 
	276.165,392.665 275.306,398.7 274.424,395.002 274.424,401 276.378,397.955 276.378,396.587 "/>
<path fill="none" stroke="#000000" stroke-width="0.25" stroke-miterlimit="10" d="M307.917,388.239l3.805-0.763l-1.902,2.434
	l3.105-1.217l-3.655,2.97l5.716-2.683l-5.295,3.57l7.046-2.537l-6.555,3.948l8.75-3.221l-7.724,4.25l8.589-2.325l-9.597,5.249
	l12.421-5.218l-13.22,8.058l15.005-7.324l-16.367,9.889l17.598-8.327l-19.01,9.994l23.98-11.528l-47.475,25.637l60.884-31.617
	c0,0-56.339,31.676-58.919,32.466s1.031,1.546,1.031,1.546l13.919-8.124l11.333-6.305l15.46-7.06l11.72-6.339l7.69-2.92v3.264
	l-9.569,3.436l-1.517,2.18l14.006-3.897L341.956,400l8.761-1.014l-4.823,2.948l5.853,0.831l-2.709,0.945l5.629,3.178l1.573,3.883"/>
<polyline fill="none" stroke="#000000" stroke-width="0.25" stroke-miterlimit="10" points="308.862,409.956 329.759,400 
	310.348,411.747 330.962,401 311.994,413.481 330.962,402.421 324.288,408.276 331.731,403.108 329.799,406.322 334.037,404.288 
	333.017,402.419 "/>
<polyline fill="none" stroke="#000000" stroke-width="0.25" stroke-miterlimit="10" points="285.709,423.893 307.55,411.239 
	286.104,425.788 306.583,413.896 286.542,427.9 304.664,417.623 286.816,429.218 301.46,422.017 287.209,431.104 296.567,427.117 
	287.495,432.48 292.02,431.385 287.849,434.184 "/>
<line fill="none" stroke="#000000" stroke-width="0.25" stroke-miterlimit="10" x1="344.875" y1="388.742" x2="323.404" y2="400"/>
<polyline fill="none" stroke="#000000" stroke-width="0.25" stroke-miterlimit="10" points="341.214,381.481 344.017,387.477 
	341.214,384.479 341.214,387.477 338.766,384.479 339.866,388.98 337.947,384.958 337.947,386.79 335.171,385.971 335.171,387.477 
	333.08,386.855 333.08,387.477 331.965,388.894 334.14,388.376 336.115,387.477 336.681,385.512 341.097,383.526 "/>
<line fill="none" stroke="#000000" stroke-width="0.25" stroke-miterlimit="10" x1="344.875" y1="392.665" x2="331.965" y2="398.642"/>
<polyline fill="none" stroke="#000000" stroke-width="0.25" stroke-miterlimit="10" points="334.216,408.73 334.454,414.112 
	335.333,411.128 335.623,410.142 335.723,416.336 336.681,411.239 337.317,416.336 337.938,412.466 338.853,417.898 339.05,413.583 
	339.866,417.898 340.081,414.617 341.092,417.953 341.279,415.82 342.492,417.758 "/>
<path fill="none" stroke="#000000" stroke-width="0.25" stroke-miterlimit="10" d="M318.475,442.157l16.077,2.08l-16.218-0.411
	l15.185,1.646l-15.185,0.782l14.28,0.657l-14.063,1.026h13.18l-12.285,2.696l12.285-1.669l-10.62,3.981l11.937-3.996l-9,6.035
	l9.988-6.017l-9.442,10.314l10.167-10.453l-6.285,10.453l7.533-10.615l-4.279,10.615l4.95-10.314l-1.71,11.043l3.02-11.043v7.562
	l0.569-8.428l1.307,7.912v-7.046l1.869,7.699v-10.272l1.348,8.589l-0.236-8.684l2.98,8.429l-2.387-8.795l4.562,7.332l-3.126-8.403
	l3.126,6.221l-2.097-7.228l5.154,8.649l-4.781-9.089l6.696,8.258l-5.732-9.75l7.082,8.078l-6.654-9.114c0,0,6.313,6.812,7.342,8.08
	s-7.027-9.729-7.027-9.729l9.586,10.139l-9.642-11.515l11.502,10.295l-10.604-11.384l12.108,9.448l-10.734-10.307l13.259,9.315
	l-12.572-10.175l12.572,8.359l-11.37-9.234l11.37,6.028l-10.339-7.558c0,0,9.088,2.943,9.275,3.369s-8.244-4.639-8.244-4.639h5.668
	l-5.497-2.258l7.333,0.99l-12.653-4.354l13.174,3.363l-12.148-5.233l12.742,5.233l-5.699-4.203l2.26-0.2l-4.193-1.436h2.105
	l-2.841-1.501l1.837-0.299l-2.681-1.42l2.123-0.506l-2.702-0.675l1.561-0.939l-2.21-0.386l1.203-1.041l-1.832-0.241l0.842-1.158
	l-1.711-0.614"/>
<path fill="none" stroke="#000000" stroke-width="0.25" stroke-miterlimit="10" d="M340.897,425.541l3.119,13.7l-5.457-13.193
	l3.932,13.193l-5.44-12.33l3.846,12.33l-5.406-11.298l4.195,12.953l-5.47-11.77l4.138,11.77l-6.059-10.679
	c0,0,3.587,9.586,4.386,10.679s-4.95-9.512-4.95-9.512l4.713,11.258l-6.236-10.837l4.008,10.837h-1.021l-3.955-10.071l0.863,4.688
	l-1.824-3.918l0.965,3.918l-2.113-2.469l0.679,2.686l-1.338-1.454"/>
<polyline fill="none" stroke="#000000" stroke-width="0.25" stroke-miterlimit="10" points="330.433,438.659 331.965,443.418 
	329.342,439.931 329.342,442.643 327.794,441.039 328.216,443.418 326.241,441.663 326.241,443.162 "/>
<path fill="none" stroke="#000000" stroke-width="0.25" stroke-miterlimit="10" d="M344.017,431.385l0.859,7.274l0.761-8.046v5.992
	l1.054-6.069c0,0-0.081,6.858,0,7.329s0.945-7.398,0.945-7.398l0.292,7.398l0.783-7.477l2.177,4.67l-2.124-5.502l3.499,1.828
	l-3.388-3.578l5.278,3.578l-5.219-4.508l6.593,4.508l-3.287-4.508l-1.588-2.715l-0.879,1.379l1.288,5.869l0.859,1.244l7.902,0.516
	l1.115,4.09l1.118,3.779"/>
</svg>
