<?xml version="1.0" encoding="utf-8"?>
<!-- Generator: Adobe Illustrator 16.0.0, SVG Export Plug-In . SVG Version: 6.00 Build 0)  -->
<!DOCTYPE svg PUBLIC "-//W3C//DTD SVG 1.1//EN" "http://www.w3.org/Graphics/SVG/1.1/DTD/svg11.dtd">
<svg version="1.1" id="Layer_2" xmlns="http://www.w3.org/2000/svg" xmlns:xlink="http://www.w3.org/1999/xlink" x="0px" y="0px"
	 width="800px" height="800px" viewBox="0 0 800 800" enable-background="new 0 0 800 800" xml:space="preserve">
<polygon stroke="#FFFFFF" stroke-miterlimit="10" points="474.701,252.998 462.732,250.718 439.936,261.547 411.438,282.064 
	402.89,282.064 400,271.806 409.729,250.718 431.956,238.18 448.484,230.201 458.173,230.201 "/>
<polyline points="458.173,230.201 441.075,221.652 424.547,221.652 406.31,233.621 389.781,249.579 378.953,276.365 
	389.211,313.411 390.921,332.218 407.449,308.281 400,297.453 400,282.064 402.89,282.064 "/>
<polygon fill="#F7941E" points="407.449,308.281 390.921,332.218 394.341,332.218 384.652,341.337 390.352,354.446 408.02,370.404 
	430.246,370.404 443.354,370.404 449.055,351.026 462.163,354.446 467.862,348.176 474.701,341.907 472.422,332.218 
	467.862,333.928 467.862,327.659 467.862,319.11 474.701,316.83 481.541,312.841 481.541,303.152 477.551,303.152 474.701,300.872 
	474.701,298.022 483.82,300.872 488.38,296.313 479.261,282.064 483.82,274.655 474.701,252.998 442,246.002 403.167,264.169 
	394.341,286.669 "/>
<polygon fill="#FFFFFF" points="449.055,279.785 458.173,276.935 474.701,276.935 469.571,284.914 461.878,284.914 449.055,284.914 
	"/>
<polygon fill="#ED1C24" points="458.173,276.935 456.004,279.484 459.936,280.925 452.899,284.914 473.164,279.326 470.697,276.935 
	"/>
<polygon fill="#BE1E2D" points="427.653,287.762 437.351,297.488 430.137,298.522 437.351,309.49 445.036,302.041 452.899,303.282 
	463.031,316.94 481.541,310.732 481.541,312.841 467.862,319.11 467.862,333.928 472.422,332.218 474.701,341.907 462.163,354.446 
	451.658,345.291 446.691,347.567 430.344,330.598 440.897,328.115 422.894,328.736 438.414,370.404 394.341,332.218 
	422.479,310.732 420.824,293.142 418.562,300.178 408.2,296.246 411.305,292.314 401.785,286.106 405.304,282.064 416.479,290.245 
	418.562,287.762 "/>
</svg>
