<?xml version="1.0" encoding="utf-8"?>
<!-- Generator: Adobe Illustrator 16.0.0, SVG Export Plug-In . SVG Version: 6.00 Build 0)  -->
<!DOCTYPE svg PUBLIC "-//W3C//DTD SVG 1.1//EN" "http://www.w3.org/Graphics/SVG/1.1/DTD/svg11.dtd">
<svg version="1.1" id="Layer_2" xmlns="http://www.w3.org/2000/svg" xmlns:xlink="http://www.w3.org/1999/xlink" x="0px" y="0px"
	 width="800px" height="800px" viewBox="0 0 800 800" enable-background="new 0 0 800 800" xml:space="preserve">
<polygon fill="none" stroke="#000000" stroke-miterlimit="10" points="412.873,316.051 421.352,311.675 432.565,307.025 
	442.138,304.563 449.522,304.563 452.531,304.563 452.531,299.914 446.24,298.546 442.959,292.529 435.574,288.426 423.813,290.341 
	412.873,295.538 407.402,297.179 398.65,296.358 391.539,294.991 379.778,297.179 375.676,302.238 368.291,318.786 368.291,329.726 
	373.761,347.778 373.761,354.889 387.163,346.957 389.078,342.308 393.18,346.41 397.83,348.051 400,343.675 394.274,342.581 
	390.445,339.299 386.616,333.008 384.154,328.358 384.975,320.153 392.086,318.786 395.915,321.657 400,326.444 404.12,330.273 
	404.394,336.017 408.771,336.017 410.411,331.094 410.411,325.077 "/>
<polyline fill="none" stroke="#000000" stroke-miterlimit="10" points="452.531,299.914 452.531,296.632 455.54,295.538 
	455.54,292.255 450.344,290.341 447.335,282.956 440.771,280.221 433.659,280.221 431.198,276.939 434.753,273.383 427.369,273.383 
	427.369,267.64 421.898,262.443 414.787,262.443 410.411,262.443 408.497,265.178 408.497,267.093 400,271.469 394.821,276.392 
	389.351,278.307 380.599,281.179 380.599,285.965 376.496,288.426 376.496,291.708 370.752,295.538 368.291,302.102 
	365.009,313.315 368.291,324.803 "/>
<polygon fill="none" stroke="#000000" stroke-miterlimit="10" points="372.667,357.077 366.103,354.889 360.633,358.718 
	357.351,362.273 352.975,368.291 357.351,370.752 371.299,372.94 380.599,377.316 390.445,382.513 401.112,391.812 410.274,399.5 
	415.334,406.035 420.531,410.411 420.531,399.5 415.334,390.718 413.42,385.795 410.411,384.428 407.676,373.487 397.283,369.658 
	380.599,360.906 "/>
<polyline fill="none" stroke="#000000" stroke-miterlimit="10" points="380.786,296.991 368.291,325.897 383.362,296.512 
	368.763,331.282 386.753,295.881 369.789,334.668 390.171,295.881 370.943,338.479 379.231,327.538 373.488,341.487 
	381.419,329.453 373.761,347.778 383.061,330 377.317,350.513 383.881,337.658 381.419,348.325 386.753,339.025 386.067,347.605 
	390.445,339.299 "/>
<polyline fill="none" stroke="#000000" stroke-miterlimit="10" points="420.531,291.9 416.976,298.82 416.903,293.623 
	413.146,301.281 412.873,295.538 408.497,304.29 408.497,298.095 403.573,304.29 403.573,298.095 400,305.384 400,296.485 
	395.915,306.751 395.915,298.273 392.36,307.846 394.274,297.179 388.531,309.213 391.539,294.991 384.975,311.675 "/>
<polyline fill="none" stroke="#000000" stroke-miterlimit="10" points="423.813,290.341 423.813,285.965 421.898,281.315 
	423.813,278.033 429.557,275.298 "/>
<polyline fill="none" stroke="#000000" stroke-miterlimit="10" points="420.531,290.341 418.89,286.238 418.89,282.819 
	417.522,277.76 421.898,275.298 423.539,271.743 423.539,267.366 423.539,264.001 "/>
<polyline fill="none" stroke="#000000" stroke-miterlimit="10" points="417.522,291.9 414.24,286.785 414.24,284.871 
	414.24,280.495 414.24,274.204 415.881,271.743 417.522,264.001 414.787,262.443 "/>
<polyline fill="none" stroke="#000000" stroke-miterlimit="10" points="414.24,291.9 410.274,288.426 410.274,284.324 
	410.411,277.172 412.258,272.836 412.258,267.366 410.274,264.001 "/>
<polyline fill="none" stroke="#000000" stroke-miterlimit="10" points="412.258,293.623 406.855,291.9 406.855,287.333 
	406.855,280.495 406.855,275.298 402.753,271.469 400,271.469 "/>
<polyline fill="none" stroke="#000000" stroke-miterlimit="10" points="408.223,295.881 404.12,291.9 402.753,287.333 
	402.753,280.221 400,275.298 394.821,276.392 "/>
<polyline fill="none" stroke="#000000" stroke-miterlimit="10" points="404.394,295.881 400,291.9 400,287.059 397.83,282.546 
	392.907,277.951 389.351,278.307 "/>
<polyline fill="none" stroke="#000000" stroke-miterlimit="10" points="398.377,293.623 395.915,290.341 395.915,285.59 
	390.445,282.819 389.351,282.819 384.975,282.819 380.599,285.965 "/>
<path fill="none" stroke="#000000" stroke-miterlimit="10" d="M394.821,293.623l-3.282-3.282l-2.051-2.12h-4.513
	c0,0-4.649-1.163-5.607,0.205"/>
<polyline fill="none" stroke="#000000" stroke-miterlimit="10" points="389.488,293.623 386.753,290.692 383.061,290.692 
	379.368,291.9 373.624,293.623 "/>
<path fill="none" stroke="#000000" stroke-miterlimit="10" d="M384.975,295.881l-1.641-2.258l-6.564,1.129
	c0,0-2.462,1.606-3.146,2.427s-3.692,4.608-3.692,4.608"/>
<path fill="none" stroke="#000000" stroke-miterlimit="10" d="M427.095,287.76v-4.941l-1.367-1.504c0,0,1.642-4.268,2.462-3.365
	s4.339,0.761,3.674-0.125"/>
<path fill="none" stroke="#000000" stroke-miterlimit="10" d="M430.69,289.221v-3.631l-1.134-2.771c0,0-1.056-1.504,0.566-1.504
	s3.536-1.094,3.536-1.094"/>
<path fill="none" stroke="#000000" stroke-miterlimit="10" d="M433.659,287.76v-3.983c0,0,0.548-0.547,1.915-1.231
	s4.103-1.23,4.103-1.23"/>
<path fill="none" stroke="#000000" stroke-miterlimit="10" d="M436.668,288.221c0,0-2.188-0.627,0-1.305s3.828-2.437,5.196-2.378
	s4.376,0,4.376,0"/>
<path fill="none" stroke="#000000" stroke-miterlimit="10" d="M439.677,290.341l1.291-1.915c0,0,3.904-0.41,5.272-0.205
	s4.104,2.12,4.104,2.12"/>
<path fill="none" stroke="#000000" stroke-miterlimit="10" d="M442.959,292.529c0,0,1.641-2.581,2.051-1.837
	s2.324-0.408,3.966,0.852s3.556,2.08,3.556,2.08l2.044-1.723"/>
<polyline fill="none" stroke="#000000" stroke-miterlimit="10" points="445.01,295.881 447.608,293.623 450.344,294.752 
	454.575,293.623 "/>
<polyline fill="none" stroke="#000000" stroke-miterlimit="10" points="445.781,297.705 448.768,295.881 450.344,297.705 
	452.531,296.632 "/>
<path fill="none" stroke="#000000" stroke-miterlimit="10" d="M375.128,301.787h-1.504c0,0-4.512,2.502-3.692,3.323
	s-1.641,1.368-1.641,1.368l-1.094,5.197l3.966-2.735l1.734-0.474l-4.605,4.303l-1.094,1.915v2.735"/>
<path fill="none" stroke="#000000" stroke-miterlimit="10" d="M448.768,323.197l-3.758-2.771l-5.333-1.094h-3.981h-4.256
	l-3.797,5.47l3.797,2.461c0,0,2.492-1.915,3.313,0s3.452,3.556,3.452,3.556l2.763,1.367l4.813-1.915L448.768,323.197z"/>
<path fill="none" stroke="#000000" stroke-miterlimit="10" d="M446.24,324.803l-5.272-1.606h-2.763l-2.51,0.803
	c0,0-3.13-1.658-2.036,0.803s1.368-0.274,3.009,0.957s1.409,1.504,3.166,1.778s3.125,0,3.125,0L446.24,324.803z"/>
<polyline fill="none" stroke="#000000" stroke-miterlimit="10" points="452.531,304.563 454.575,311.675 457.181,316.051 
	457.181,321.657 452.531,327.659 452.531,334.376 457.181,343.949 454.855,346.684 450.344,350.513 449.156,357.351 
	447.608,362.273 449.793,366.376 449.156,372.94 442.959,374.035 435.695,374.035 429.219,372.667 423.539,376.77 420.531,382.65 
	413.42,385.795 "/>
<polyline fill="none" stroke="#000000" stroke-miterlimit="10" points="404.394,355.983 438.205,371.573 406.129,359.265 
	425.728,369.385 408.223,363.778 421.898,371.573 408.223,366.376 420.531,373.761 408.223,369.658 417.522,375.949 
	408.223,372.394 417.522,378.411 410.274,376.223 414.24,380.325 410.411,380.325 414.24,382.65 410.411,382.65 412.258,385.267 "/>
<polyline fill="none" stroke="#000000" stroke-miterlimit="10" points="440.968,338.752 435.301,345.18 431.439,350.513 
	431.439,354.889 433.427,350.513 435.301,346.82 438.205,343.949 440.968,340.667 440.968,342.581 438.205,346.82 435.695,349.419 
	435.301,352.974 436.668,354.889 436.668,350.513 438.205,349.419 438.205,351.88 438.205,354.889 440.968,353.248 440.968,350.513 
	442.959,350.513 442.959,354.889 445.01,352.154 445.781,354.889 446.24,352.974 447.608,355.983 447.608,351.607 449.793,350.513 
	446.24,349.419 450.344,348.598 445.01,345.18 442.959,343.128 446.24,343.401 450.344,345.18 452.531,347.367 452.531,344.222 
	454.575,343.401 456.542,342.633 454.575,345.18 "/>
<path fill="none" stroke="#000000" stroke-miterlimit="10" d="M451.601,299.711h-13.396l12.139,2.076h-13.676l14.933,1.682
	l-17.941,1.094l-2.22,1.368h-2.603l-3.109,1.367l-2.188,1.094v1.21h-6.017h-5.265l1.162-2.851l-5.197,2.851l-2.094,3.987h-3.376
	l-0.687,0.67l-5.194,5.073l-0.957,2.324H400l6.129-6.153l-4.607,1.915l8.89-5.744h5.47l-7.658,3.829l2.188,0.82l-4.282,3.009
	l-2.165,1.816l-2.442,2.048l1.231,1.606l6.564-5.47c0,0,1.368,0.819,0,2.324s-4.924,4.103-4.924,4.103l3.829,1.899h-3.829
	l3.829,1.52l-3.829,1.915l1.892,0.541l1.938,0.553v1.915l-3.008,1.915"/>
<path fill="none" stroke="#000000" stroke-miterlimit="10" d="M410.411,329.726l7.111,7.385l-1.642,3.556l-5.606-5.47l-2.052,2.188
	l4.035,3.282l3.623,6.701l4.65,6.427l-3.009,1.094l-7.248-7.521l-5.881-6.975l-2.872-4.376h-3.145c0,0-2.189,1.916-1.505,2.735
	s4.649,3.555,4.649,3.555l4.607,5.06l4.282,4.513l5.47,4.103"/>
<polyline fill="none" stroke="#000000" stroke-miterlimit="10" points="394.821,386.328 404.394,389.077 400,390.843 
	404.394,390.843 408.636,391.812 414.24,391.812 402.753,393.189 417.522,393.189 406.129,396.021 417.522,396.021 408.636,398.125 
	418.616,398.125 410.274,399.5 418.616,399.5 413.42,401.385 418.616,401.385 413.42,403.562 "/>
<polyline fill="none" stroke="#000000" stroke-miterlimit="10" points="449.793,306.205 448.768,311.675 451.601,307.572 
	450.184,311.675 452.531,309.603 451.601,313.316 454.575,311.675 "/>
<polyline fill="none" stroke="#000000" stroke-miterlimit="10" points="384.975,350.513 389.488,359.812 382.787,350.513 
	387.095,362 381.556,352.154 381.556,358.445 379.368,352.701 "/>
<g>
	<path d="M347.531,442.903c-0.181-0.543-0.302-0.875-0.302-2.595v-3.318c0-1.96-0.664-2.685-2.172-2.685h-1.146v8.598h-3.318
		v-21.116h5.008c3.439,0,4.917,1.599,4.917,4.856v1.659c0,2.172-0.694,3.56-2.172,4.254v0.06c1.659,0.694,2.202,2.263,2.202,4.465
		v3.258c0,1.026,0.03,1.78,0.362,2.564H347.531z M343.911,424.804v6.485h1.297c1.237,0,1.991-0.543,1.991-2.232v-2.081
		c0-1.509-0.513-2.172-1.689-2.172H343.911z"/>
	<path d="M352.447,426.854c0-3.379,1.78-5.31,5.038-5.31c3.258,0,5.038,1.931,5.038,5.31v10.98c0,3.379-1.78,5.31-5.038,5.31
		c-3.258,0-5.038-1.931-5.038-5.31V426.854z M355.766,438.047c0,1.508,0.664,2.081,1.72,2.081c1.056,0,1.719-0.573,1.719-2.081
		v-11.403c0-1.509-0.664-2.082-1.719-2.082c-1.056,0-1.72,0.573-1.72,2.082V438.047z"/>
	<path d="M369.642,431.139h4.646v6.696c0,3.379-1.689,5.31-4.947,5.31c-3.258,0-4.947-1.931-4.947-5.31v-10.98
		c0-3.379,1.689-5.31,4.947-5.31c3.258,0,4.947,1.931,4.947,5.31v2.052h-3.137v-2.263c0-1.509-0.664-2.082-1.719-2.082
		c-1.056,0-1.72,0.573-1.72,2.082v11.403c0,1.508,0.664,2.051,1.72,2.051c1.056,0,1.719-0.543,1.719-2.051v-3.892h-1.508V431.139z"
		/>
	<path d="M379.747,430.686h4.555v3.017h-4.555v6.185h5.732v3.017h-9.05v-21.116h9.05v3.017h-5.732V430.686z"/>
	<path d="M394.468,442.903c-0.181-0.543-0.302-0.875-0.302-2.595v-3.318c0-1.96-0.664-2.685-2.172-2.685h-1.146v8.598h-3.318
		v-21.116h5.008c3.439,0,4.917,1.599,4.917,4.856v1.659c0,2.172-0.694,3.56-2.172,4.254v0.06c1.659,0.694,2.202,2.263,2.202,4.465
		v3.258c0,1.026,0.03,1.78,0.362,2.564H394.468z M390.848,424.804v6.485h1.297c1.237,0,1.991-0.543,1.991-2.232v-2.081
		c0-1.509-0.513-2.172-1.689-2.172H390.848z"/>
	<path d="M407.65,431.169h4.283v3.017h-4.283v8.718h-3.318v-21.116h8.778v3.017h-5.46V431.169z"/>
	<path d="M418.026,430.686h4.555v3.017h-4.555v6.185h5.731v3.017h-9.05v-21.116h9.05v3.017h-5.731V430.686z"/>
	<path d="M425.809,421.787h5.249c3.318,0,4.947,1.84,4.947,5.219v10.679c0,3.379-1.629,5.219-4.947,5.219h-5.249V421.787z
		 M429.127,424.804v15.083h1.87c1.056,0,1.689-0.543,1.689-2.052v-10.98c0-1.508-0.634-2.051-1.689-2.051H429.127z"/>
	<path d="M441.435,430.686h4.555v3.017h-4.555v6.185h5.731v3.017h-9.05v-21.116h9.05v3.017h-5.731V430.686z"/>
	<path d="M456.154,442.903c-0.181-0.543-0.301-0.875-0.301-2.595v-3.318c0-1.96-0.664-2.685-2.173-2.685h-1.146v8.598h-3.318
		v-21.116h5.007c3.439,0,4.918,1.599,4.918,4.856v1.659c0,2.172-0.694,3.56-2.172,4.254v0.06c1.659,0.694,2.202,2.263,2.202,4.465
		v3.258c0,1.026,0.029,1.78,0.361,2.564H456.154z M452.535,424.804v6.485h1.297c1.236,0,1.991-0.543,1.991-2.232v-2.081
		c0-1.509-0.513-2.172-1.689-2.172H452.535z"/>
	<path d="M464.662,430.686h4.555v3.017h-4.555v6.185h5.731v3.017h-9.05v-21.116h9.05v3.017h-5.731V430.686z"/>
	<path d="M479.382,442.903c-0.181-0.543-0.301-0.875-0.301-2.595v-3.318c0-1.96-0.664-2.685-2.173-2.685h-1.146v8.598h-3.318
		v-21.116h5.007c3.439,0,4.918,1.599,4.918,4.856v1.659c0,2.172-0.694,3.56-2.172,4.254v0.06c1.658,0.694,2.202,2.263,2.202,4.465
		v3.258c0,1.026,0.029,1.78,0.361,2.564H479.382z M475.763,424.804v6.485h1.297c1.236,0,1.991-0.543,1.991-2.232v-2.081
		c0-1.509-0.513-2.172-1.689-2.172H475.763z"/>
</g>
<circle fill="none" stroke="#000000" stroke-miterlimit="10" cx="413.42" cy="331.094" r="83.693"/>
</svg>
